<!DOCTYPE svg PUBLIC "-//W3C//DTD SVG 1.1//EN" "http://www.w3.org/Graphics/SVG/1.1/DTD/svg11.dtd"[]><svg xmlns="http://www.w3.org/2000/svg" version="1.1" width="304" height="120" style="shape-rendering:geometricPrecision; text-rendering:geometricPrecision; image-rendering:optimizeQuality; fill-rule:evenodd; clip-rule:evenodd" xmlns:xlink="http://www.w3.org/1999/xlink" viewBox="0 0 2000 787"><g><path style="opacity:0.997" fill="#f76c68" d="M 360.5,69.5 C 474.74,66.0219 566.24,109.355 635,199.5C 696.29,290.208 709.29,387.541 674,491.5C 631.129,597.376 553.962,663.21 442.5,689C 330.539,708.007 234.372,677.84 154,598.5C 80.6784,517.246 54.345,422.579 75,314.5C 100.065,213.444 159.565,140.611 253.5,96C 287.85,81.3289 323.517,72.4955 360.5,69.5 Z" /></g><g><path style="opacity:0.994" fill="#f76b67" d="M 935.5,106.5 C 969.563,104.915 1000.23,114.082 1027.5,134C 1054.33,157.811 1065.83,187.644 1062,223.5C 1055.65,277.706 1029.82,319.872 984.5,350C 1027.16,362.011 1051.33,390.178 1057,434.5C 1062.36,485.942 1044.19,526.775 1002.5,557C 969.225,579.092 932.558,591.425 892.5,594C 861.307,596.982 830.974,593.315 801.5,583C 798.469,580.441 796.302,577.274 795,573.5C 789.342,553.567 786.009,533.233 785,512.5C 783.705,493.849 782.705,475.183 782,456.5C 780.724,376.134 781.724,295.801 785,215.5C 785.388,196.389 788.388,177.722 794,159.5C 794.972,157.695 796.139,156.028 797.5,154.5C 839.77,127.522 885.77,111.522 935.5,106.5 Z M 923.5,224.5 C 949.079,220.907 959.246,231.573 954,256.5C 945.946,280.875 931.446,300.375 910.5,315C 905.454,317.691 900.12,319.524 894.5,320.5C 893.006,320.291 891.839,319.624 891,318.5C 888.64,291.923 890.307,265.59 896,239.5C 904.006,232.249 913.173,227.249 923.5,224.5 Z M 921.5,409.5 C 932.98,407.49 942.813,410.49 951,418.5C 954.176,425.794 954.176,433.127 951,440.5C 945.373,452.795 936.873,462.629 925.5,470C 915.579,477.134 904.579,481.134 892.5,482C 890.065,475.257 889.065,468.257 889.5,461C 889.509,449.028 890.676,437.195 893,425.5C 895.282,422.432 898.116,419.932 901.5,418C 907.92,414.282 914.586,411.449 921.5,409.5 Z" /></g><g><path style="opacity:1" fill="#feeded" d="M 409.5,436.5 C 408.549,437.919 408.216,439.585 408.5,441.5C 411.167,441.5 413.833,441.5 416.5,441.5C 430.488,441.9 439.988,448.567 445,461.5C 445.841,476.64 439.341,487.473 425.5,494C 398.042,505.411 369.375,510.911 339.5,510.5C 328.615,511.358 318.615,508.858 309.5,503C 303.579,496.848 302.079,489.682 305,481.5C 312.02,465.496 324.186,455.663 341.5,452C 345.684,427.38 348.517,402.546 350,377.5C 351.056,344.159 352.222,310.826 353.5,277.5C 337.163,280.869 322.996,276.869 311,265.5C 304.954,252.186 307.787,241.02 319.5,232C 335.971,221.508 353.971,215.175 373.5,213C 390.831,211.02 408.165,211.02 425.5,213C 434.805,214.767 443.472,218.1 451.5,223C 456.739,227.718 458.572,233.551 457,240.5C 454.967,249.875 449.8,257.042 441.5,262C 434.622,265.625 427.456,268.458 420,270.5C 419.486,326.034 415.986,381.368 409.5,436.5 Z" /></g><g><path style="opacity:0.992" fill="#f76b67" d="M 1153.5,224.5 C 1169.65,222.826 1181.49,229.159 1189,243.5C 1194.67,255.166 1197.67,267.499 1198,280.5C 1198.67,289.5 1198.67,298.5 1198,307.5C 1193.25,336.727 1189.25,366.06 1186,395.5C 1183.78,416.215 1184.12,436.881 1187,457.5C 1188.9,468.303 1193.24,477.97 1200,486.5C 1208.1,493.902 1217.6,496.402 1228.5,494C 1243.2,490.968 1253.37,482.468 1259,468.5C 1265.77,448.769 1268.93,428.436 1268.5,407.5C 1267.91,397.505 1267.41,387.505 1267,377.5C 1263.41,348.011 1259.91,318.511 1256.5,289C 1256.88,265.555 1267.21,248.221 1287.5,237C 1301.25,232.514 1313.92,234.514 1325.5,243C 1340.38,257.92 1350.22,275.754 1355,296.5C 1372.58,360.539 1373.91,424.873 1359,489.5C 1336.51,566.966 1285.01,602.133 1204.5,595C 1156.26,588.098 1122.43,562.264 1103,517.5C 1094.04,495.332 1088.37,472.332 1086,448.5C 1080,394.472 1086,341.806 1104,290.5C 1111.3,268.378 1122.8,248.878 1138.5,232C 1143.05,228.394 1148.05,225.894 1153.5,224.5 Z" /></g><g><path style="opacity:0.992" fill="#f76b67" d="M 1452.5,228.5 C 1466.82,227.24 1477.32,232.906 1484,245.5C 1494.62,267.579 1500.28,290.913 1501,315.5C 1502.1,347.172 1502.77,378.839 1503,410.5C 1505.32,432.821 1517.65,443.821 1540,443.5C 1558.72,443.775 1572.06,435.441 1580,418.5C 1583.43,409.794 1585.76,400.794 1587,391.5C 1588.2,364.852 1588.87,338.186 1589,311.5C 1588.83,290.335 1593.5,270.335 1603,251.5C 1611.92,237.964 1624.42,232.797 1640.5,236C 1649.56,238.397 1657.06,243.23 1663,250.5C 1677.92,272.244 1687.59,296.244 1692,322.5C 1708,413.797 1708,505.13 1692,596.5C 1685.2,636.573 1671.87,674.239 1652,709.5C 1616.07,765.682 1565.91,784.182 1501.5,765C 1478.24,758.292 1458.4,746.125 1442,728.5C 1429.11,709.331 1430.94,691.831 1447.5,676C 1458.05,668.111 1469.72,665.778 1482.5,669C 1495.23,673.132 1507.9,677.466 1520.5,682C 1540.41,686.475 1556.58,680.642 1569,664.5C 1580.85,647.126 1589.18,628.126 1594,607.5C 1602.25,570.904 1606.92,533.904 1608,496.5C 1596.42,514.755 1582.59,531.255 1566.5,546C 1540.05,565.381 1511.05,570.047 1479.5,560C 1455.58,549.415 1437.41,532.582 1425,509.5C 1413.31,485.751 1405.64,460.751 1402,434.5C 1394.49,381.149 1397.83,328.482 1412,276.5C 1416.71,260.571 1424.88,246.738 1436.5,235C 1441.43,231.532 1446.76,229.365 1452.5,228.5 Z" /></g><g><path style="opacity:1" fill="#fbb1b0" d="M 409.5,436.5 C 409.5,437.833 409.5,439.167 409.5,440.5C 412.059,440.198 414.393,440.532 416.5,441.5C 413.833,441.5 411.167,441.5 408.5,441.5C 408.216,439.585 408.549,437.919 409.5,436.5 Z" /></g></svg>